<svg xmlns="http://www.w3.org/2000/svg" width="30" height="24" viewBox="0 0 30 24">
  <g id="users-mmm" transform="translate(0 2.913)">
    <path id="Path_1" data-name="Path 1" d="M27.4,15.619l-3.42-.917a1.507,1.507,0,0,1-1.1-1.125l-.21-.989A4.391,4.391,0,0,0,25.41,8.594V6.581A4.65,4.65,0,0,0,20.865,2a4.725,4.725,0,0,0-4.418,2.588,5.855,5.855,0,0,1,1.147,3.459V10.06a5.466,5.466,0,0,1-.242,1.576,4.711,4.711,0,0,0,1.419.953l-.21.989a1.507,1.507,0,0,1-1.1,1.123l-1.319.353,2.314.62a2.976,2.976,0,0,1,2.268,2.82v2.558a2.053,2.053,0,0,1-.144.733h7.179a.758.758,0,0,0,.782-.733V17.028A1.483,1.483,0,0,0,27.4,15.619Z" transform="translate(-5.087 -0.698)" fill="#fff"/>
    <path id="Path_2" data-name="Path 2" d="M14.5,17.546l-3.42-.912a1.5,1.5,0,0,1-1.1-1.119l-.21-.985a4.368,4.368,0,0,0,2.741-3.972v-2A4.637,4.637,0,0,0,7.961,4a4.882,4.882,0,0,0-3.41,1.232A4.234,4.234,0,0,0,3.127,8.373v2.187a4.367,4.367,0,0,0,2.741,3.974l-.21.983a1.5,1.5,0,0,1-1.1,1.117l-3.42.914A1.476,1.476,0,0,0,0,18.948v2.545a.757.757,0,0,0,.782.729h14.07a.757.757,0,0,0,.782-.729V18.948a1.476,1.476,0,0,0-1.134-1.4Z" transform="translate(0 -1.134)" fill="#fff"/>
    <text id="_" data-name="+" transform="translate(22 10.087)" fill="#fff" font-size="14" font-family="ProximaNova-Extrabld, Proxima Nova"><tspan x="0" y="0">+</tspan></text>
  </g>
</svg>
