<svg xmlns="http://www.w3.org/2000/svg" width="30" height="23.873" viewBox="0 0 30 23.873">
  <g id="users-mmm" transform="translate(-3 2.913)">
    <text id="_" data-name="+" transform="translate(25 10.087)" fill="#fff" font-size="14" font-family="ProximaNova-Extrabld, Proxima Nova"><tspan x="0" y="0">+</tspan></text>
    <g id="board-2" transform="translate(3 4.525)">
      <path id="Path_3" data-name="Path 3" d="M23.48,4H5.5A1.468,1.468,0,0,0,4,5.436V22.671a1.468,1.468,0,0,0,1.5,1.436H23.48a1.468,1.468,0,0,0,1.5-1.436V5.436A1.468,1.468,0,0,0,23.48,4ZM13.365,21.3a.358.358,0,0,1-.4.3H7.019a.358.358,0,0,1-.4-.3V16.863a.358.358,0,0,1,.4-.3h5.95a.358.358,0,0,1,.4.3Zm0-7.35a.434.434,0,0,1-.4.465H7.019a.434.434,0,0,1-.4-.465V6.978a.434.434,0,0,1,.4-.465h5.95a.434.434,0,0,1,.4.465Zm8.991,7.269a.387.387,0,0,1-.4.377H16.01a.387.387,0,0,1-.4-.377V6.89a.387.387,0,0,1,.4-.377h5.95a.387.387,0,0,1,.4.377Z" transform="translate(-4 -7.672)" fill="#fff"/>
    </g>
  </g>
</svg>
