<svg xmlns="http://www.w3.org/2000/svg" width="12.228" height="13.128" viewBox="0 0 12.228 13.128">
  <g id="attach" transform="translate(0.5 0.688)">
    <path id="Path_15" data-name="Path 15" d="M19.571,12.688l-4.638,4.638a3.761,3.761,0,0,1-5.294,0h0a3.761,3.761,0,0,1,0-5.294l4.778-4.8a2.587,2.587,0,0,1,3.654,0h0a2.587,2.587,0,0,1,0,3.654L13.6,15.335a1.428,1.428,0,0,1-1.991,0h0a1.428,1.428,0,0,1,0-1.991l4.31-4.286" transform="translate(-8.55 -6.475)" fill="none" stroke="#444" stroke-linecap="square" stroke-miterlimit="10" stroke-width="1"/>
  </g>
</svg>
