<svg id="bell" xmlns="http://www.w3.org/2000/svg" width="15.772" height="15.772" viewBox="0 0 15.772 15.772">
  <path id="Path_5" data-name="Path 5" d="M14.195,7.689c-.789-.69-1.38-1.084-1.38-1.774V4.929A4.881,4.881,0,0,0,7.886,0,4.881,4.881,0,0,0,2.957,4.929v.986c0,.69-.591,1.084-1.38,1.774C.789,8.28,0,8.872,0,9.857c0,2.76,6.013,2.957,7.886,2.957s7.886-.2,7.886-2.957C15.772,8.872,14.983,8.28,14.195,7.689Z" fill="#fc8f66"/>
  <path id="Path_6" data-name="Path 6" d="M10.817,13.9c-1.084.1-1.971.1-2.859.1S6.184,14,5.1,13.9a3.009,3.009,0,0,0,5.717,0Z" transform="translate(-0.073 -0.198)" fill="#fc8f66"/>
</svg>
