<svg width="30" height="25.315" xmlns="http://www.w3.org/2000/svg">
 <g>
  <title>background</title>
  <rect x="-1" y="-1" width="32" height="27.315" id="canvas_background" fill="none"/>
 </g>

 <g>
  <title>Layer 1</title>
  <g id="users-mm">
   <path id="Path_1" d="m28.549,17.427l-4.375,-1.173a1.927,1.927 0 0 1 -1.412,-1.439l-0.269,-1.266a5.617,5.617 0 0 0 3.507,-5.109l0,-2.576a5.949,5.949 0 0 0 -5.815,-5.861a6.045,6.045 0 0 0 -5.652,3.311a7.49,7.49 0 0 1 1.467,4.425l0,2.576a6.993,6.993 0 0 1 -0.309,2.016a6.028,6.028 0 0 0 1.816,1.219l-0.269,1.266a1.928,1.928 0 0 1 -1.412,1.437l-1.687,0.452l2.96,0.793a3.807,3.807 0 0 1 2.901,3.605l0,3.273a2.627,2.627 0 0 1 -0.184,0.938l9.184,0a0.97,0.97 0 0 0 1,-0.937l0,-5.147a1.9,1.9 0 0 0 -1.451,-1.8l0,-0.003z" fill="#666666"/>
   <path id="Path_2" d="m18.549,19.334l-4.375,-1.167a1.922,1.922 0 0 1 -1.412,-1.431l-0.269,-1.26a5.588,5.588 0 0 0 3.507,-5.081l0,-2.562a5.932,5.932 0 0 0 -5.815,-5.83a6.245,6.245 0 0 0 -4.363,1.576a5.417,5.417 0 0 0 -1.822,4.019l0,2.8a5.587,5.587 0 0 0 3.507,5.084l-0.269,1.257a1.922,1.922 0 0 1 -1.412,1.429l-4.375,1.166a1.889,1.889 0 0 0 -1.451,1.793l0,3.256a0.968,0.968 0 0 0 1,0.933l18,0a0.968,0.968 0 0 0 1,-0.933l0,-3.256a1.889,1.889 0 0 0 -1.451,-1.793z" fill="#666666"/>
  </g>
 </g>
</svg>