<svg xmlns="http://www.w3.org/2000/svg" width="27" height="27" viewBox="0 0 27 27">
  <g id="board-2" transform="translate(-4 -4)">
    <path id="Path_3" data-name="Path 3" d="M29.071,4H5.929A1.929,1.929,0,0,0,4,5.929V29.071A1.929,1.929,0,0,0,5.929,31H29.071A1.929,1.929,0,0,0,31,29.071V5.929A1.929,1.929,0,0,0,29.071,4ZM16.054,27.228a.465.465,0,0,1-.511.4H7.886a.465.465,0,0,1-.511-.4V21.272a.465.465,0,0,1,.511-.4h7.657a.465.465,0,0,1,.511.4Zm0-9.869a.576.576,0,0,1-.511.624H7.886a.576.576,0,0,1-.511-.624V8a.576.576,0,0,1,.511-.624h7.657A.576.576,0,0,1,16.054,8Zm11.571,9.761a.508.508,0,0,1-.511.506H19.457a.508.508,0,0,1-.511-.506V7.881a.508.508,0,0,1,.511-.506h7.657a.508.508,0,0,1,.511.506Z" fill="#c3c3c3"/>
  </g>
</svg>
