<svg xmlns="http://www.w3.org/2000/svg" width="20.978" height="20.107" viewBox="0 0 20.978 20.107">
    <g id="prefix__board-2" transform="translate(0 3.672)">
        <path id="prefix__Path_3" d="M23.48 4H5.5A1.468 1.468 0 0 0 4 5.436v17.235a1.468 1.468 0 0 0 1.5 1.436h17.98a1.468 1.468 0 0 0 1.5-1.436V5.436A1.468 1.468 0 0 0 23.48 4zM13.365 21.3a.358.358 0 0 1-.4.3H7.019a.358.358 0 0 1-.4-.3v-4.437a.358.358 0 0 1 .4-.3h5.95a.358.358 0 0 1 .4.3zm0-7.35a.434.434 0 0 1-.4.465H7.019a.434.434 0 0 1-.4-.465V6.978a.434.434 0 0 1 .4-.465h5.95a.434.434 0 0 1 .4.465zm8.991 7.269a.387.387 0 0 1-.4.377H16.01a.387.387 0 0 1-.4-.377V6.89a.387.387 0 0 1 .4-.377h5.95a.387.387 0 0 1 .4.377z" data-name="Path 3" transform="translate(-4 -7.672)" style="fill:#fff"/>
    </g>
</svg>
