<svg xmlns="http://www.w3.org/2000/svg" width="20.168" height="20.863" viewBox="0 0 20.168 20.863">
  <g id="trash-can" transform="translate(-3 -2)">
    <path id="Path_11" data-name="Path 11" d="M22.82,5.477H16.909V3.391A1.391,1.391,0,0,0,15.518,2H10.65A1.391,1.391,0,0,0,9.259,3.391V5.477H3.348a.348.348,0,1,0,0,.7H22.82a.348.348,0,0,0,0-.7ZM9.954,3.391a.7.7,0,0,1,.7-.7h4.868a.7.7,0,0,1,.7.7V5.477H9.954Z" fill="#fc6666"/>
    <path id="Path_12" data-name="Path 12" d="M24.951,16h-14.6a.348.348,0,0,0-.348.371l.928,13.686A2.094,2.094,0,0,0,13.008,32h9.281a2.094,2.094,0,0,0,2.081-1.939L25.3,16.371A.348.348,0,0,0,24.951,16Z" transform="translate(-4.564 -9.132)" fill="#fc6666"/>
  </g>
</svg>
