<svg xmlns="http://www.w3.org/2000/svg" width="20.168" height="20.863" viewBox="0 0 20.168 20.863">
    <defs>
        <style>
            .prefix__cls-1{fill:#fff}
        </style>
    </defs>
    <g id="prefix__trash-can" transform="translate(-3 -2)">
        <path id="prefix__Path_11" d="M22.82 5.477h-5.911V3.391A1.391 1.391 0 0 0 15.518 2H10.65a1.391 1.391 0 0 0-1.391 1.391v2.086H3.348a.348.348 0 1 0 0 .7H22.82a.348.348 0 0 0 0-.7zM9.954 3.391a.7.7 0 0 1 .7-.7h4.868a.7.7 0 0 1 .7.7v2.086H9.954z" class="prefix__cls-1" data-name="Path 11"/>
        <path id="prefix__Path_12" d="M24.951 16h-14.6a.348.348 0 0 0-.348.371l.928 13.686A2.094 2.094 0 0 0 13.008 32h9.281a2.094 2.094 0 0 0 2.081-1.939l.93-13.69a.348.348 0 0 0-.349-.371z" class="prefix__cls-1" data-name="Path 12" transform="translate(-4.564 -9.132)"/>
    </g>
</svg>
