<svg xmlns="http://www.w3.org/2000/svg" width="30" height="25.315" viewBox="0 0 30 25.315">
  <g id="users-mm" transform="translate(0 -1.997)">
    <path id="Path_1" data-name="Path 1" d="M30.549,19.424l-4.375-1.173a1.927,1.927,0,0,1-1.412-1.439l-.269-1.266A5.617,5.617,0,0,0,28,10.437V7.861A5.949,5.949,0,0,0,22.185,2a6.045,6.045,0,0,0-5.652,3.311A7.49,7.49,0,0,1,18,9.736v2.576a6.993,6.993,0,0,1-.309,2.016,6.028,6.028,0,0,0,1.816,1.219l-.269,1.266a1.928,1.928,0,0,1-1.412,1.437l-1.687.452,2.96.793A3.807,3.807,0,0,1,22,23.1v3.273a2.627,2.627,0,0,1-.184.938H31a.97.97,0,0,0,1-.937V21.227a1.9,1.9,0,0,0-1.451-1.8Z" transform="translate(-2)" fill="#c3c3c3"/>
    <path id="Path_2" data-name="Path 2" d="M18.549,21.331l-4.375-1.167a1.922,1.922,0,0,1-1.412-1.431l-.269-1.26A5.588,5.588,0,0,0,16,12.392V9.83A5.932,5.932,0,0,0,10.185,4,6.245,6.245,0,0,0,5.822,5.576,5.417,5.417,0,0,0,4,9.595v2.8a5.587,5.587,0,0,0,3.507,5.084l-.269,1.257a1.922,1.922,0,0,1-1.412,1.429L1.451,21.331A1.889,1.889,0,0,0,0,23.124V26.38a.968.968,0,0,0,1,.933H19a.968.968,0,0,0,1-.933V23.124a1.889,1.889,0,0,0-1.451-1.793Z" fill="#c3c3c3"/>
  </g>
</svg>
