<svg width="27.143" height="27" xmlns="http://www.w3.org/2000/svg">

 <g>
  <title>background</title>
  <rect fill="none" id="canvas_background" height="602" width="802" y="-1" x="-1"/>
 </g>
 <g>
  <title>Layer 1</title>
  <g id="prefix__home-2_1_">
   <path fill="#444444" d="m18.573,27l3.391,0a1.6,1.6 0 0 0 1.7,-1.7l0,-11.864l1.7,0a1.925,1.925 0 0 0 1.348,-0.511a1.648,1.648 0 0 0 -0.17,-2.374l-11.868,-10.17a1.783,1.783 0 0 0 -2.2,0l-11.872,10.173a1.648,1.648 0 0 0 -0.17,2.371a1.32,1.32 0 0 0 1.187,0.509l1.7,0l0,11.871a1.6,1.6 0 0 0 1.7,1.7l3.382,0a1.6,1.6 0 0 0 1.7,-1.7l0,-5.087l6.782,0l0,5.087a1.6,1.6 0 0 0 1.69,1.695z" id="prefix__Path_4"/>
  </g>
 </g>
</svg>