<svg xmlns="http://www.w3.org/2000/svg" width="27.143" height="27" viewBox="0 0 27.143 27">
    <g id="prefix__home-2_1_" data-name="home-2 (1)" transform="translate(-1.045 -.075)">
        <path id="prefix__Path_4" d="M18.618 27.075h3.391a1.6 1.6 0 0 0 1.7-1.7V13.511h1.7A1.925 1.925 0 0 0 26.757 13a1.648 1.648 0 0 0-.17-2.374L14.719.456a1.783 1.783 0 0 0-2.2 0L.647 10.629A1.648 1.648 0 0 0 .477 13a1.32 1.32 0 0 0 1.187.509h1.7V25.38a1.6 1.6 0 0 0 1.7 1.7h3.382a1.6 1.6 0 0 0 1.7-1.7v-5.087h6.782v5.087a1.6 1.6 0 0 0 1.69 1.695z" data-name="Path 4" transform="translate(1)" style="fill:#fff"/>
    </g>
</svg>
