<svg xmlns="http://www.w3.org/2000/svg" width="30" height="24" viewBox="0 0 30 24">
    <defs>
        <style>
            .prefix__cls-1{fill:#fff}
        </style>
    </defs>
    <g id="prefix__users-mmm" transform="translate(0 2.913)">
        <path id="prefix__Path_1" d="M27.4 15.619l-3.42-.917a1.507 1.507 0 0 1-1.1-1.125l-.21-.989a4.391 4.391 0 0 0 2.74-3.994V6.581A4.65 4.65 0 0 0 20.865 2a4.725 4.725 0 0 0-4.418 2.588 5.855 5.855 0 0 1 1.147 3.459v2.013a5.466 5.466 0 0 1-.242 1.576 4.711 4.711 0 0 0 1.419.953l-.21.989a1.507 1.507 0 0 1-1.1 1.123l-1.319.353 2.314.62a2.976 2.976 0 0 1 2.268 2.82v2.558a2.053 2.053 0 0 1-.144.733h7.179a.758.758 0 0 0 .782-.733v-4.024a1.483 1.483 0 0 0-1.141-1.409z" class="prefix__cls-1" data-name="Path 1" transform="translate(-5.087 -.698)"/>
        <path id="prefix__Path_2" d="M14.5 17.546l-3.42-.912a1.5 1.5 0 0 1-1.1-1.119l-.21-.985a4.368 4.368 0 0 0 2.741-3.972v-2A4.637 4.637 0 0 0 7.961 4a4.882 4.882 0 0 0-3.41 1.232 4.234 4.234 0 0 0-1.424 3.141v2.187a4.367 4.367 0 0 0 2.741 3.974l-.21.983a1.5 1.5 0 0 1-1.1 1.117l-3.42.914A1.476 1.476 0 0 0 0 18.948v2.545a.757.757 0 0 0 .782.729h14.07a.757.757 0 0 0 .782-.729v-2.545a1.476 1.476 0 0 0-1.134-1.4z" class="prefix__cls-1" data-name="Path 2" transform="translate(0 -1.134)"/>
        <text id="prefix___" data-name="+" transform="translate(22 10.087)" style="font-size:14px;font-family:ProximaNova-Extrabld,Proxima Nova;fill:#fff">
            <tspan x="0" y="0">+</tspan>
        </text>
    </g>
</svg>
